<svg width="72" height="25" viewBox="0 0 72 25" fill="none" xmlns="http://www.w3.org/2000/svg">
<path d="M0.5 24V0.727264H16.8636V5.81817H6.81818V9.81817H15.8636V14.9091H6.81818V24H0.5Z" fill="black"/>
<path d="M22.5208 24.3182C20.6572 24.3182 19.0511 23.9621 17.7026 23.25C16.3617 22.5303 15.3276 21.5 14.6003 20.1591C13.8806 18.8106 13.5208 17.197 13.5208 15.3182C13.5208 13.5151 13.8844 11.9394 14.6117 10.5909C15.339 9.24242 16.3655 8.19317 17.6912 7.44317C19.017 6.69317 20.5814 6.31817 22.3844 6.31817C23.7026 6.31817 24.8958 6.52272 25.964 6.93181C27.0322 7.3409 27.945 7.9356 28.7026 8.7159C29.4602 9.48863 30.0435 10.428 30.4526 11.5341C30.8617 12.6401 31.0662 13.8864 31.0662 15.2727V16.7273H15.4753V13.2727H25.2935C25.2859 12.7727 25.1572 12.3333 24.9072 11.9545C24.6647 11.5682 24.3352 11.2689 23.9185 11.0568C23.5094 10.8371 23.0435 10.7273 22.5208 10.7273C22.0132 10.7273 21.5473 10.8371 21.1231 11.0568C20.6988 11.2689 20.3579 11.5644 20.1003 11.9432C19.8503 12.322 19.7178 12.7651 19.7026 13.2727V17C19.7026 17.5606 19.82 18.0606 20.0549 18.5C20.2897 18.9394 20.6269 19.2841 21.0662 19.5341C21.5056 19.7841 22.0359 19.9091 22.6572 19.9091C23.089 19.9091 23.4829 19.8485 23.839 19.7273C24.2026 19.6061 24.5132 19.4318 24.7708 19.2045C25.0284 18.9697 25.2178 18.6894 25.339 18.3636H31.0662C30.8693 19.5757 30.4034 20.6288 29.6685 21.5227C28.9337 22.4091 27.9602 23.0985 26.7481 23.5909C25.5435 24.0758 24.1344 24.3182 22.5208 24.3182Z" fill="black"/>
<path d="M45.7405 12.2273H39.9677C39.9374 11.8712 39.8124 11.5644 39.5927 11.3068C39.373 11.0492 39.0889 10.8523 38.7405 10.7159C38.3995 10.572 38.0208 10.5 37.6041 10.5C37.0662 10.5 36.6041 10.5985 36.2177 10.7954C35.8314 10.9924 35.642 11.2727 35.6495 11.6364C35.642 11.8939 35.7518 12.1326 35.9791 12.3523C36.2139 12.572 36.6647 12.7424 37.3314 12.8636L40.8768 13.5C42.6647 13.8257 43.9942 14.375 44.8655 15.1477C45.7442 15.9129 46.1874 16.9394 46.195 18.2273C46.1874 19.4697 45.8162 20.5492 45.0814 21.4659C44.3541 22.375 43.3579 23.0795 42.0927 23.5795C40.8352 24.072 39.3995 24.3182 37.7859 24.3182C35.1192 24.3182 33.0321 23.7727 31.5245 22.6818C30.0245 21.5909 29.1874 20.1515 29.0132 18.3636H35.2405C35.3238 18.9167 35.5965 19.3447 36.0586 19.6477C36.5283 19.9432 37.1192 20.0909 37.8314 20.0909C38.4071 20.0909 38.8806 19.9924 39.2518 19.7954C39.6306 19.5985 39.8238 19.3182 39.8314 18.9545C39.8238 18.6212 39.6571 18.3561 39.3314 18.1591C39.0132 17.9621 38.5132 17.803 37.8314 17.6818L34.7405 17.1364C32.9602 16.8258 31.6268 16.2348 30.7405 15.3636C29.8541 14.4924 29.4147 13.3712 29.4223 12C29.4147 10.7879 29.7329 9.76136 30.3768 8.92045C31.0283 8.07196 31.9564 7.42802 33.1609 6.98863C34.373 6.54166 35.8086 6.31817 37.4677 6.31817C39.9905 6.31817 41.9791 6.8409 43.4336 7.88636C44.8958 8.93181 45.6647 10.3788 45.7405 12.2273Z" fill="black"/>
<path d="M55.1675 6.54545V11.0909H43.6675V6.54545H55.1675ZM45.8948 2.36363H52.1675V18.3864C52.1675 18.6288 52.2092 18.8333 52.2925 19C52.3758 19.1591 52.5046 19.2803 52.6789 19.3636C52.8531 19.4394 53.0766 19.4773 53.3493 19.4773C53.5387 19.4773 53.7584 19.4545 54.0084 19.4091C54.266 19.3636 54.4554 19.3257 54.5766 19.2954L55.4857 23.7045C55.2054 23.7879 54.8039 23.8901 54.2811 24.0114C53.766 24.1326 53.1523 24.2121 52.4402 24.25C51.0008 24.3257 49.7925 24.178 48.8152 23.8068C47.838 23.428 47.1031 22.8333 46.6107 22.0227C46.1183 21.2121 45.8796 20.197 45.8948 18.9773V2.36363Z" fill="black"/>
<path d="M62.1087 24.3182C60.2148 24.3182 58.5936 23.9432 57.2451 23.1932C55.8966 22.4356 54.8625 21.3826 54.1428 20.0341C53.4231 18.678 53.0633 17.1061 53.0633 15.3182C53.0633 13.5303 53.4231 11.9621 54.1428 10.6136C54.8625 9.25757 55.8966 8.20454 57.2451 7.45454C58.5936 6.69696 60.2148 6.31817 62.1087 6.31817C64.0027 6.31817 65.6239 6.69696 66.9724 7.45454C68.3209 8.20454 69.355 9.25757 70.0747 10.6136C70.7944 11.9621 71.1542 13.5303 71.1542 15.3182C71.1542 17.1061 70.7944 18.678 70.0747 20.0341C69.355 21.3826 68.3209 22.4356 66.9724 23.1932C65.6239 23.9432 64.0027 24.3182 62.1087 24.3182ZM62.1542 19.6818C62.6845 19.6818 63.1428 19.5038 63.5292 19.1477C63.9156 18.7917 64.2148 18.2841 64.4269 17.625C64.6391 16.9659 64.7451 16.1818 64.7451 15.2727C64.7451 14.3561 64.6391 13.572 64.4269 12.9204C64.2148 12.2614 63.9156 11.7538 63.5292 11.3977C63.1428 11.0417 62.6845 10.8636 62.1542 10.8636C61.5936 10.8636 61.1125 11.0417 60.711 11.3977C60.3095 11.7538 60.0027 12.2614 59.7906 12.9204C59.5784 13.572 59.4724 14.3561 59.4724 15.2727C59.4724 16.1818 59.5784 16.9659 59.7906 17.625C60.0027 18.2841 60.3095 18.7917 60.711 19.1477C61.1125 19.5038 61.5936 19.6818 62.1542 19.6818Z" fill="black"/>
</svg>
