<svg width="993" height="771" viewBox="0 0 993 771" fill="none" xmlns="http://www.w3.org/2000/svg">
<rect x="877.553" y="346.341" width="115.447" height="115.447" transform="rotate(-90 877.553 346.341)" fill="#FF1818"/>
<rect x="877.553" y="230.894" width="115.447" height="115.447" transform="rotate(-90 877.553 230.894)" fill="#FF1818"/>
<rect x="762.106" y="230.894" width="115.447" height="115.447" transform="rotate(-90 762.106 230.894)" fill="#FF1818"/>
<rect x="762.106" y="115.447" width="115.447" height="115.447" transform="rotate(-90 762.106 115.447)" fill="#FF1818"/>
<rect x="646.659" y="115.447" width="115.447" height="115.447" transform="rotate(-90 646.659 115.447)" fill="#FF1818"/>
<rect x="532" y="230.894" width="115.447" height="115.447" transform="rotate(-90 532 230.894)" fill="#FF1818"/>
<rect x="646.659" y="346.341" width="115.447" height="115.447" transform="rotate(-90 646.659 346.341)" fill="#FF1818"/>
<rect x="877.553" y="115.447" width="115.447" height="115.447" transform="rotate(-90 877.553 115.447)" fill="#FF1818"/>
<rect x="346" y="526.553" width="115.447" height="115.447" fill="#FF1818"/>
<rect x="461.447" y="526.553" width="115.447" height="115.447" fill="#FF1818"/>
<rect x="461.447" y="411.106" width="115.447" height="115.447" fill="#FF1818"/>
<rect x="576.894" y="411.106" width="115.447" height="115.447" fill="#FF1818"/>
<rect x="576.894" y="295.659" width="115.447" height="115.447" fill="#FF1818"/>
<rect x="461.447" y="181" width="115.447" height="115.447" fill="#FF1818"/>
<rect x="346" y="295.659" width="115.447" height="115.447" fill="#FF1818"/>
<rect x="576.894" y="526.553" width="115.447" height="115.447" fill="#FF1818"/>
<rect y="663.553" width="115.447" height="115.447" fill="#FF1818"/>
<rect x="115.447" y="663.553" width="115.447" height="115.447" fill="#FF1818"/>
<rect x="115.447" y="548.106" width="115.447" height="115.447" fill="#FF1818"/>
<rect x="230.894" y="548.106" width="115.447" height="115.447" fill="#FF1818"/>
<rect x="230.894" y="432.659" width="115.447" height="115.447" fill="#FF1818"/>
<rect x="115.447" y="318" width="115.447" height="115.447" fill="#FF1818"/>
<rect x="230.894" y="663.553" width="115.447" height="115.447" fill="#FF1818"/>
<rect x="647" y="691.553" width="115.447" height="115.447" fill="#FF1818"/>
<rect x="762.447" y="691.553" width="115.447" height="115.447" fill="#FF1818"/>
<rect x="762.447" y="576.106" width="115.447" height="115.447" fill="#FF1818"/>
<rect x="877.894" y="576.106" width="115.447" height="115.447" fill="#FF1818"/>
<rect x="877.894" y="460.659" width="115.447" height="115.447" fill="#FF1818"/>
<rect x="762.447" y="346" width="115.447" height="115.447" fill="#FF1818"/>
<rect x="647" y="460.659" width="115.447" height="115.447" fill="#FF1818"/>
<rect x="877.894" y="691.553" width="115.447" height="115.447" fill="#FF1818"/>
</svg>
